<?xml version="1.0"?>
<svg width="24" height="24" xmlns="http://www.w3.org/2000/svg" xmlns:svg="http://www.w3.org/2000/svg">
 <g class="layer">
  <title>Layer 1</title>
  <g id="Navigation / Building_04">
   <path d="m2,20l2,0m0,0l10,0m-10,0l0,-13.8c0,-1.12 0,-1.68 0.22,-2.11c0.19,-0.37 0.5,-0.68 0.87,-0.87c0.43,-0.22 0.99,-0.22 2.11,-0.22l3.6,0c1.12,0 1.68,0 2.11,0.22c0.37,0.19 0.68,0.5 0.87,0.87c0.22,0.43 0.22,0.99 0.22,2.11l0,5.8m0,8l6,0m-6,0l0,-8m6,8l2,0m-2,0l0,-8c0,-0.93 0,-1.4 -0.15,-1.77c-0.21,-0.49 -0.59,-0.87 -1.08,-1.08c-0.37,-0.15 -0.84,-0.15 -1.77,-0.15c-0.93,0 -1.4,0 -1.77,0.15c-0.49,0.21 -0.87,0.59 -1.08,1.08c-0.15,0.37 -0.15,0.84 -0.15,1.77m-7,-2l4,0m-4,-3l4,0" fill="#ffffff" id="Vector" stroke="#5a5a5a" stroke-linecap="round" stroke-linejoin="round" stroke-width="2"/>
  </g>
 </g>
</svg>